<mxfile host="app.diagrams.net" modified="2023-09-03T12:03:21.927Z" agent="Mozilla/5.0 (Windows NT 10.0; Win64; x64) AppleWebKit/537.36 (KHTML, like Gecko) Chrome/116.0.0.0 Safari/537.36" etag="i26lV8ICWJ-HNA2YPKFe" version="21.7.2" type="device">
  <diagram name="Страница — 1" id="GVEyb2UjBejN0O7voyhd">
    <mxGraphModel dx="880" dy="446" grid="1" gridSize="10" guides="1" tooltips="1" connect="1" arrows="1" fold="1" page="1" pageScale="1" pageWidth="827" pageHeight="1169" math="0" shadow="0">
      <root>
        <mxCell id="0" />
        <mxCell id="1" parent="0" />
        <mxCell id="fyMF7k5cCuOuNe2v6sL3-1" value="&lt;p style=&quot;margin:0px;margin-top:4px;text-align:center;&quot;&gt;&lt;b&gt;Customer&lt;/b&gt;&lt;/p&gt;&lt;hr size=&quot;1&quot;&gt;&lt;p style=&quot;margin:0px;margin-left:4px;&quot;&gt;- name: str&lt;br&gt;+ current_order: Order&lt;/p&gt;&lt;hr size=&quot;1&quot;&gt;&lt;p style=&quot;margin:0px;margin-left:4px;&quot;&gt;+ create_order()&lt;br&gt;+ get_payment()&lt;/p&gt;&lt;p style=&quot;margin:0px;margin-left:4px;&quot;&gt;+ get_feedback(Worker)&lt;/p&gt;&lt;p style=&quot;margin:0px;margin-left:4px;&quot;&gt;+ use_menu()&amp;nbsp;&lt;/p&gt;" style="verticalAlign=top;align=left;overflow=fill;fontSize=12;fontFamily=Helvetica;html=1;whiteSpace=wrap;" parent="1" vertex="1">
          <mxGeometry x="60" y="20" width="190" height="140" as="geometry" />
        </mxCell>
        <mxCell id="fyMF7k5cCuOuNe2v6sL3-2" value="&lt;p style=&quot;margin:0px;margin-top:4px;text-align:center;&quot;&gt;&lt;b&gt;Worker&lt;/b&gt;&lt;/p&gt;&lt;hr size=&quot;1&quot;&gt;&lt;p style=&quot;margin:0px;margin-left:4px;&quot;&gt;- name: str&lt;/p&gt;&lt;p style=&quot;margin:0px;margin-left:4px;&quot;&gt;- position: str&lt;br&gt;+ work_orders: list&lt;/p&gt;&lt;p style=&quot;margin:0px;margin-left:4px;&quot;&gt;- feedback: list&lt;/p&gt;&lt;hr size=&quot;1&quot;&gt;&lt;p style=&quot;margin:0px;margin-left:4px;&quot;&gt;+ take_order(Order)&lt;br&gt;+ delivery_dish(Dish)&lt;/p&gt;&lt;p style=&quot;margin:0px;margin-left:4px;&quot;&gt;+ give_order_to_chef(Order)&lt;/p&gt;&lt;p style=&quot;margin:0px;margin-left:4px;&quot;&gt;+ set_feedback()&lt;/p&gt;&lt;p style=&quot;margin:0px;margin-left:4px;&quot;&gt;+ take_payment(Customer)&lt;/p&gt;" style="verticalAlign=top;align=left;overflow=fill;fontSize=12;fontFamily=Helvetica;html=1;whiteSpace=wrap;" parent="1" vertex="1">
          <mxGeometry x="414" y="20" width="230" height="190" as="geometry" />
        </mxCell>
        <mxCell id="fyMF7k5cCuOuNe2v6sL3-3" value="&lt;p style=&quot;margin:0px;margin-top:4px;text-align:center;&quot;&gt;&lt;b&gt;Dish&lt;/b&gt;&lt;/p&gt;&lt;hr size=&quot;1&quot;&gt;&lt;p style=&quot;margin:0px;margin-left:4px;&quot;&gt;- name: str&lt;br&gt;- price: float&lt;/p&gt;&lt;p style=&quot;margin:0px;margin-left:4px;&quot;&gt;- ingredients: list&lt;/p&gt;&lt;hr size=&quot;1&quot;&gt;&lt;p style=&quot;margin:0px;margin-left:4px;&quot;&gt;+ info()&lt;/p&gt;&lt;p style=&quot;margin:0px;margin-left:4px;&quot;&gt;+ get_price()&lt;br&gt;&lt;br&gt;&lt;/p&gt;" style="verticalAlign=top;align=left;overflow=fill;fontSize=12;fontFamily=Helvetica;html=1;whiteSpace=wrap;" parent="1" vertex="1">
          <mxGeometry x="434" y="270" width="190" height="120" as="geometry" />
        </mxCell>
        <mxCell id="fyMF7k5cCuOuNe2v6sL3-4" value="&lt;p style=&quot;margin:0px;margin-top:4px;text-align:center;&quot;&gt;&lt;b&gt;Order&lt;/b&gt;&lt;/p&gt;&lt;hr size=&quot;1&quot;&gt;&lt;p style=&quot;margin:0px;margin-left:4px;&quot;&gt;+ dish_list: list&lt;br&gt;+ payment: float&lt;/p&gt;&lt;p style=&quot;margin:0px;margin-left:4px;&quot;&gt;- waitor: Worker&lt;/p&gt;&lt;p style=&quot;margin:0px;margin-left:4px;&quot;&gt;+ status: bool&lt;/p&gt;&lt;hr size=&quot;1&quot;&gt;&lt;p style=&quot;margin:0px;margin-left:4px;&quot;&gt;+ set_add_dish()&lt;br&gt;+ set_payment()&lt;/p&gt;&lt;p style=&quot;margin:0px;margin-left:4px;&quot;&gt;+ set_status_ready()&lt;/p&gt;" style="verticalAlign=top;align=left;overflow=fill;fontSize=12;fontFamily=Helvetica;html=1;whiteSpace=wrap;" parent="1" vertex="1">
          <mxGeometry x="60" y="250" width="190" height="150" as="geometry" />
        </mxCell>
        <mxCell id="8zXJczdNaUse8YuQbAUh-1" value="" style="endArrow=diamondThin;endFill=0;endSize=24;html=1;rounded=0;exitX=0.174;exitY=-0.007;exitDx=0;exitDy=0;exitPerimeter=0;entryX=0.174;entryY=1.021;entryDx=0;entryDy=0;entryPerimeter=0;" edge="1" parent="1" source="fyMF7k5cCuOuNe2v6sL3-4" target="fyMF7k5cCuOuNe2v6sL3-1">
          <mxGeometry width="160" relative="1" as="geometry">
            <mxPoint x="330" y="230" as="sourcePoint" />
            <mxPoint x="490" y="230" as="targetPoint" />
          </mxGeometry>
        </mxCell>
        <mxCell id="8zXJczdNaUse8YuQbAUh-2" value="" style="endArrow=diamondThin;endFill=0;endSize=24;html=1;rounded=0;exitX=0.553;exitY=-0.02;exitDx=0;exitDy=0;exitPerimeter=0;entryX=0;entryY=0.5;entryDx=0;entryDy=0;" edge="1" parent="1" source="fyMF7k5cCuOuNe2v6sL3-4" target="fyMF7k5cCuOuNe2v6sL3-2">
          <mxGeometry width="160" relative="1" as="geometry">
            <mxPoint x="103" y="259" as="sourcePoint" />
            <mxPoint x="370" y="180" as="targetPoint" />
            <Array as="points">
              <mxPoint x="165" y="200" />
              <mxPoint x="320" y="200" />
              <mxPoint x="320" y="115" />
            </Array>
          </mxGeometry>
        </mxCell>
        <mxCell id="8zXJczdNaUse8YuQbAUh-3" value="1" style="text;html=1;strokeColor=none;fillColor=none;align=center;verticalAlign=middle;whiteSpace=wrap;rounded=0;" vertex="1" parent="1">
          <mxGeometry x="354" y="80" width="60" height="30" as="geometry" />
        </mxCell>
        <mxCell id="8zXJczdNaUse8YuQbAUh-4" value="1" style="text;html=1;strokeColor=none;fillColor=none;align=center;verticalAlign=middle;whiteSpace=wrap;rounded=0;" vertex="1" parent="1">
          <mxGeometry x="40" y="160" width="60" height="30" as="geometry" />
        </mxCell>
        <mxCell id="8zXJczdNaUse8YuQbAUh-5" value="1" style="text;html=1;strokeColor=none;fillColor=none;align=center;verticalAlign=middle;whiteSpace=wrap;rounded=0;" vertex="1" parent="1">
          <mxGeometry x="230" y="300" width="60" height="30" as="geometry" />
        </mxCell>
        <mxCell id="8zXJczdNaUse8YuQbAUh-6" value="n" style="text;html=1;strokeColor=none;fillColor=none;align=center;verticalAlign=middle;whiteSpace=wrap;rounded=0;" vertex="1" parent="1">
          <mxGeometry x="390" y="300" width="60" height="30" as="geometry" />
        </mxCell>
        <mxCell id="8zXJczdNaUse8YuQbAUh-7" value="n" style="text;html=1;strokeColor=none;fillColor=none;align=center;verticalAlign=middle;whiteSpace=wrap;rounded=0;" vertex="1" parent="1">
          <mxGeometry x="40" y="220" width="60" height="30" as="geometry" />
        </mxCell>
        <mxCell id="8zXJczdNaUse8YuQbAUh-8" value="n" style="text;html=1;strokeColor=none;fillColor=none;align=center;verticalAlign=middle;whiteSpace=wrap;rounded=0;" vertex="1" parent="1">
          <mxGeometry x="150" y="220" width="60" height="30" as="geometry" />
        </mxCell>
        <mxCell id="8zXJczdNaUse8YuQbAUh-9" value="" style="endArrow=diamondThin;endFill=0;endSize=24;html=1;rounded=0;entryX=1;entryY=0.587;entryDx=0;entryDy=0;entryPerimeter=0;" edge="1" parent="1" source="fyMF7k5cCuOuNe2v6sL3-3" target="fyMF7k5cCuOuNe2v6sL3-4">
          <mxGeometry width="160" relative="1" as="geometry">
            <mxPoint x="430" y="350" as="sourcePoint" />
            <mxPoint x="490" y="230" as="targetPoint" />
          </mxGeometry>
        </mxCell>
      </root>
    </mxGraphModel>
  </diagram>
</mxfile>
